<svg width="16" height="16" viewBox="0 0 16 16" fill="none" xmlns="http://www.w3.org/2000/svg">
<path fill-rule="evenodd" clip-rule="evenodd" d="M13.5 3.0967C13.5 2.74297 13.1427 2.50109 12.8143 2.63246L7.5 4.75818V9.49263L12.8143 11.6184C13.1427 11.7497 13.5 11.5078 13.5 11.1541V3.0967ZM7.5 11.1082L12.2572 13.0111C13.5709 13.5366 15 12.569 15 11.1541V3.0967C15 1.68177 13.5709 0.714254 12.2572 1.23975L6.60556 3.50041H3C1.89543 3.50041 1 4.39584 1 5.50041V8.75041C1 9.85498 1.89543 10.7504 3 10.7504H3.5V13.0004C3.5 14.105 4.39543 15.0004 5.5 15.0004H6.75C7.16421 15.0004 7.5 14.6646 7.5 14.2504V11.1082ZM6 9.25041H3C2.72386 9.25041 2.5 9.02655 2.5 8.75041V5.50041C2.5 5.22427 2.72386 5.00041 3 5.00041H6V9.25041ZM6 10.7504V13.5004H5.5C5.22386 13.5004 5 13.2765 5 13.0004V10.7504H6Z" fill="#505258"/>
</svg>
