<svg width="16" height="16" viewBox="0 0 16 16" fill="none" xmlns="http://www.w3.org/2000/svg">
<path fill-rule="evenodd" clip-rule="evenodd" d="M3.00003 5C3.00003 2.23858 5.23861 0 8.00003 0C10.7615 0 13 2.23858 13 5V8.5349L14.7884 11.3963C15.3608 12.3121 14.7023 13.5 13.6224 13.5H11.1631C10.8245 14.9333 9.53682 16 8.00003 16C6.46324 16 5.17558 14.9333 4.837 13.5H2.37769C1.29771 13.5 0.639304 12.3121 1.21169 11.3963L3.00003 8.5349V5ZM6.41844 13.5C6.69931 14.0912 7.30193 14.5 8.00003 14.5C8.69813 14.5 9.30076 14.0912 9.58162 13.5H6.41844ZM8.00003 1.5C6.06704 1.5 4.50003 3.067 4.50003 5V8.63578C4.50003 8.85099 4.43955 9.06186 4.32549 9.24436L2.60322 12H13.3968L11.6746 9.24436C11.5605 9.06186 11.5 8.85099 11.5 8.63578V5C11.5 3.067 9.93303 1.5 8.00003 1.5Z" fill="#505258"/>
</svg>
